<?xml version="1.0" standalone="no"?>
<!DOCTYPE svg PUBLIC "-//W3C//DTD SVG 20010904//EN"
 "http://www.w3.org/TR/2001/REC-SVG-20010904/DTD/svg10.dtd">
<svg version="1.0" xmlns="http://www.w3.org/2000/svg"
 width="65.000000pt" height="75.000000pt" viewBox="0 0 960.000000 1097.000000"
 preserveAspectRatio="xMidYMid meet">
<metadata>
Created by potrace 1.13, written by Peter Selinger 2001-2015
</metadata>
<g transform="translate(0.000000,1097.000000) scale(0.100000,-0.100000)"
fill="#000000" stroke="none">
<path d="M7430 7613 c12 -18 19 -33 15 -33 -3 0 0 -10 7 -22 13 -25 18 -42 22
-73 1 -11 8 -40 16 -65 19 -63 20 -69 24 -120 2 -25 7 -52 10 -61 4 -10 3 -20
-3 -24 -7 -4 -9 -22 -5 -45 5 -28 2 -43 -9 -54 -8 -9 -18 -38 -22 -65 -5 -35
-12 -50 -24 -54 -11 -2 -23 -22 -31 -51 -8 -28 -22 -54 -36 -62 -12 -9 -26
-29 -29 -45 -4 -16 -22 -45 -41 -64 -19 -20 -34 -42 -34 -50 0 -8 -13 -27 -29
-41 -16 -14 -37 -44 -45 -65 -9 -21 -20 -39 -24 -39 -5 0 -19 -22 -32 -50 -14
-30 -30 -50 -40 -50 -9 0 -27 -22 -43 -55 -18 -37 -33 -55 -45 -55 -12 0 -26
-17 -42 -50 -15 -32 -30 -50 -41 -50 -11 0 -31 -22 -51 -55 -18 -30 -37 -55
-43 -55 -5 0 -27 -27 -49 -60 -23 -37 -45 -60 -56 -60 -10 0 -34 -22 -54 -50
-21 -30 -44 -50 -55 -50 -11 0 -35 -21 -57 -50 -21 -27 -43 -50 -49 -50 -6 0
-33 -25 -59 -55 -31 -36 -55 -55 -69 -55 -14 0 -42 -20 -72 -50 -31 -31 -58
-50 -72 -50 -14 0 -47 -22 -83 -55 -33 -30 -66 -55 -74 -55 -7 0 -37 -18 -65
-41 -28 -22 -73 -47 -99 -53 -26 -7 -76 -32 -111 -55 -35 -22 -72 -41 -83 -41
-10 0 -42 -13 -71 -30 -30 -16 -63 -30 -76 -30 -12 0 -51 -13 -88 -30 -36 -16
-78 -30 -93 -30 -15 0 -53 -9 -86 -20 -336 -116 -752 -133 -1104 -45 -52 13
-122 33 -154 45 -33 11 -72 20 -87 20 -15 0 -57 14 -94 30 -37 16 -76 30 -86
30 -11 0 -46 14 -79 30 -33 17 -67 30 -76 30 -10 0 -49 20 -88 44 -39 24 -89
48 -111 52 -23 4 -62 25 -95 51 -30 23 -62 43 -71 43 -8 0 -43 25 -76 55 -38
34 -70 55 -85 55 -15 0 -41 18 -73 50 -27 28 -58 50 -70 50 -12 0 -62 41 -128
105 -59 58 -114 105 -122 105 -8 0 -31 23 -52 50 -23 31 -45 50 -58 50 -14 0
-32 19 -59 60 -21 33 -43 60 -50 60 -6 0 -26 25 -44 55 -20 33 -40 55 -51 55
-10 0 -29 21 -46 50 -18 31 -36 50 -47 50 -12 0 -27 19 -45 55 -18 36 -33 55
-45 55 -11 0 -27 18 -43 50 -14 28 -29 50 -34 50 -4 0 -16 20 -25 43 -9 25
-27 50 -41 57 -13 7 -29 27 -35 45 -6 18 -21 42 -35 55 -13 12 -27 40 -30 61
-4 21 -11 41 -16 45 -5 3 -9 30 -9 60 0 30 -4 54 -8 54 -9 0 4 105 21 165 6
22 10 45 8 52 -1 7 7 30 18 51 11 22 18 42 15 44 -5 6 27 87 52 131 9 16 13
31 10 34 -3 4 1 17 9 30 55 83 -103 -73 -244 -242 -452 -543 -731 -1174 -826
-1874 -17 -123 -25 -150 -36 -111 -6 21 -7 19 -9 -15 -2 -35 -3 -37 -10 -15
-7 23 -8 23 -10 -10 l-3 -35 -7 35 c-4 19 -8 28 -9 18 0 -9 -6 -18 -12 -20
-17 -6 -25 -494 -10 -669 98 -1168 692 -2184 1666 -2848 1045 -712 2349 -890
3560 -487 1223 408 2114 1353 2426 2574 41 161 79 372 101 557 17 142 18 812
2 823 -6 4 -14 14 -17 22 -3 8 -6 -1 -7 -20 l-2 -35 -8 30 -8 30 -1 -33 c-1
-30 -3 -32 -16 -18 -8 8 -15 24 -15 35 0 12 -4 21 -9 21 -4 0 -11 33 -14 73
-9 103 -51 341 -87 487 -138 564 -393 1071 -769 1530 -92 112 -328 357 -291
303z m-4108 -3129 c244 -45 523 -172 893 -404 387 -242 521 -300 701 -300 182
0 333 64 684 290 370 239 629 355 898 401 446 76 804 -99 979 -479 80 -171
102 -365 67 -573 -62 -369 -259 -604 -589 -705 -84 -26 -103 -28 -280 -28
-150 -1 -208 3 -275 18 -140 30 -287 82 -425 150 -149 73 -241 133 -416 270
-306 239 -419 295 -615 303 -92 5 -124 2 -195 -16 -153 -40 -312 -126 -529
-285 -222 -163 -397 -258 -622 -335 -206 -70 -297 -86 -503 -86 -158 0 -190 3
-260 23 -281 81 -474 297 -560 625 -52 202 -57 332 -16 490 77 297 280 529
541 618 148 50 335 58 522 23z m1677 -1555 c97 -15 178 -45 259 -96 94 -58
238 -194 245 -230 8 -45 -16 -89 -56 -102 -46 -15 -71 -4 -132 59 -153 158
-294 208 -515 181 -136 -17 -202 -51 -312 -163 -94 -94 -112 -102 -167 -73
-33 17 -41 33 -41 83 0 32 10 46 103 137 112 110 212 172 324 199 70 17 204
20 292 5z m-1060 -903 c166 -101 423 -176 708 -206 171 -19 545 -8 703 20 194
34 349 83 497 155 137 67 159 73 196 53 48 -25 62 -82 31 -126 -19 -28 -188
-113 -311 -158 -579 -210 -1361 -180 -1848 69 -124 64 -145 83 -145 136 0 32
6 44 31 65 41 35 70 33 138 -8z"/>
</g>
</svg>
